HIERARCHY
ROOT Hips
{
	OFFSET 0.000000 0.000000 0.000000
	CHANNELS 6 Xposition Yposition Zposition Yrotation Xrotation Zrotation
	JOINT Chest
	{
		OFFSET 0.000000 -0.009281 11.569106
		CHANNELS 3 Yrotation Xrotation Zrotation
		JOINT Chest2
		{
			OFFSET -0.000000 0.016865 9.269641
			CHANNELS 3 Yrotation Xrotation Zrotation
			JOINT Chest3
			{
				OFFSET -0.000000 0.000001 8.374491
				CHANNELS 3 Yrotation Xrotation Zrotation
				JOINT Chest4
				{
					OFFSET -0.000000 0.000001 8.374493
					CHANNELS 3 Yrotation Xrotation Zrotation
					JOINT Neck
					{
						OFFSET -0.000000 0.000002 12.152554
						CHANNELS 3 Yrotation Xrotation Zrotation
						JOINT Head
						{
							OFFSET -0.000000 0.040101 7.802319
							CHANNELS 3 Yrotation Xrotation Zrotation
							End Site
							{
								OFFSET -0.000000 0.020947 14.853096
							}
						}
					}
					JOINT RightCollar
					{
						OFFSET 2.894404 0.000001 6.791374
						CHANNELS 3 Yrotation Xrotation Zrotation
						JOINT RightShoulder
						{
							OFFSET 13.574684 0.000001 0.000000
							CHANNELS 3 Yrotation Xrotation Zrotation
							JOINT RightElbow
							{
								OFFSET 23.923903 0.000002 0.000000
								CHANNELS 3 Yrotation Xrotation Zrotation
								JOINT RightWrist
								{
									OFFSET 19.846718 0.012767 0.000000
									CHANNELS 3 Yrotation Xrotation Zrotation
									End Site
									{
										OFFSET 14.973145 0.000001 0.000000
									}
								}
							}
						}
					}
					JOINT LeftCollar
					{
						OFFSET -2.894404 0.000001 6.791374
						CHANNELS 3 Yrotation Xrotation Zrotation
						JOINT LeftShoulder
						{
							OFFSET -13.574684 -0.000001 0.000000
							CHANNELS 3 Yrotation Xrotation Zrotation
							JOINT LeftElbow
							{
								OFFSET -23.923903 -0.000002 0.000000
								CHANNELS 3 Yrotation Xrotation Zrotation
								JOINT LeftWrist
								{
									OFFSET -19.846718 0.012763 0.000000
									CHANNELS 3 Yrotation Xrotation Zrotation
									End Site
									{
										OFFSET -14.973145 -0.000001 0.000000
									}
								}
							}
						}
					}
				}
			}
		}
	}
	JOINT RightHip
	{
		OFFSET 9.469263 0.004643 0.045487
		CHANNELS 3 Yrotation Xrotation Zrotation
		JOINT RightKnee
		{
			OFFSET 0.000000 0.002661 -40.478676
			CHANNELS 3 Yrotation Xrotation Zrotation
			JOINT RightAnkle
			{
				OFFSET 0.000000 0.049106 -35.224068
				CHANNELS 3 Yrotation Xrotation Zrotation
				JOINT RightToe
				{
					OFFSET -0.000001 12.539529 -6.151390
					CHANNELS 3 Yrotation Xrotation Zrotation
					End Site
					{
						OFFSET -0.000001 5.044994 -1.291870
					}
				}
			}
		}
	}
	JOINT LeftHip
	{
		OFFSET -9.469263 0.004641 0.045487
		CHANNELS 3 Yrotation Xrotation Zrotation
		JOINT LeftKnee
		{
			OFFSET 0.000000 0.002661 -40.478676
			CHANNELS 3 Yrotation Xrotation Zrotation
			JOINT LeftAnkle
			{
				OFFSET 0.000000 0.049106 -35.224068
				CHANNELS 3 Yrotation Xrotation Zrotation
				JOINT LeftToe
				{
					OFFSET -0.000001 12.539529 -6.151390
					CHANNELS 3 Yrotation Xrotation Zrotation
					End Site
					{
						OFFSET -0.000001 5.044994 -1.291870
					}
				}
			}
		}
	}
}
MOTION
Frames: 7
Frame Time: 0.016667
9.613068 2.750540 83.016685 -7.122251 -5.577740 -119.697453 -9.563635 2.612292 3.940752 -4.269996 1.086325 1.842157 -4.269997 1.086327 1.842159 -3.205709 0.801928 1.389249 -4.918357 -28.501754 15.342113 -5.798282 -16.889897 26.297787 -2.620662 7.673288 -12.206153 20.967318 22.089267 45.866356 -33.830026 -22.132446 32.976515 -60.619684 6.886684 38.324072 -5.111246 -19.940667 -14.548598 -49.368672 -20.844501 -65.777857 7.988430 -42.113078 -48.561576 75.928071 -2.864852 -59.196478 3.127245 -10.172016 0.461218 -0.237649 -3.682686 1.863197 0.848442 4.824560 4.330740 -0.063706 -0.069341 -0.006708 2.732144 -13.411302 4.753305 0.650167 -0.550071 2.287101 -0.943088 5.273054 3.750634 -0.016935 0.021511 0.001814 
9.614821 2.746127 83.016678 -7.147386 -5.594980 -119.697972 -9.554209 2.608174 3.946354 -4.265764 1.084570 1.844775 -4.265766 1.084571 1.844771 -3.202538 0.800606 1.391189 -4.931131 -28.523348 15.336537 -5.825468 -16.926997 26.285643 -2.633086 7.665056 -12.227410 20.969509 22.063914 45.896166 -33.822906 -22.108743 32.972622 -60.589324 6.861959 38.328136 -5.089021 -19.967305 -14.562394 -49.375438 -20.832147 -65.795711 7.964379 -42.080935 -48.535830 75.913612 -2.937829 -59.197482 3.128629 -10.205536 0.442320 -0.238458 -3.684624 1.866711 0.872406 4.831619 4.349594 -0.069079 -0.068826 -0.006044 2.735426 -13.439436 4.750277 0.652053 -0.558875 2.292565 -0.940424 5.277871 3.755352 -0.018020 0.021460 0.002150 
9.618238 2.742429 83.016685 -7.174545 -5.612708 -119.697508 -9.549307 2.602288 3.953557 -4.263217 1.081961 1.848060 -4.263217 1.081961 1.848061 -3.200623 0.798632 1.393631 -4.937475 -28.545780 15.328048 -5.842044 -16.966513 26.269652 -2.638725 7.646451 -12.243915 20.976413 22.060738 45.928890 -33.805530 -22.094677 32.963364 -60.575609 6.857631 38.331356 -5.079047 -19.959913 -14.569987 -49.383057 -20.834380 -65.785985 7.941691 -42.066138 -48.521841 75.882719 -3.016735 -59.181725 3.126546 -10.242490 0.391045 -0.236790 -3.684820 1.893992 0.895587 4.838859 4.379025 -0.073436 -0.068754 -0.006550 2.735331 -13.467467 4.738167 0.656630 -0.572202 2.299887 -0.936974 5.286248 3.719914 -0.018991 0.021454 0.002104 
9.622876 2.741795 83.016563 -7.203954 -5.631449 -119.701169 -9.543853 2.595104 3.964141 -4.260400 1.078450 1.852980 -4.260399 1.078452 1.852981 -3.198506 0.795975 1.397294 -4.943317 -28.566860 15.317935 -5.857766 -17.003512 26.250859 -2.639675 7.603084 -12.245242 20.985109 22.102825 45.958273 -33.797747 -22.105530 32.961878 -60.566265 6.865753 38.369807 -5.060331 -19.966316 -14.576662 -49.392294 -20.822376 -65.800390 7.909270 -42.062146 -48.494900 75.867337 -3.089223 -59.177538 3.122466 -10.278202 0.337292 -0.234632 -3.691100 1.922259 0.918074 4.849453 4.391595 -0.076034 -0.069177 -0.007674 2.735821 -13.497236 4.725678 0.656995 -0.589580 2.305500 -0.929469 5.295553 3.759072 -0.020537 0.022548 0.002053 
9.626102 2.741650 83.016182 -7.233370 -5.650876 -119.708791 -9.533667 2.588837 3.978587 -4.256062 1.075204 1.859220 -4.256062 1.075205 1.859217 -3.195261 0.793509 1.401944 -4.950390 -28.585576 15.307934 -5.875198 -17.035989 26.231966 -2.655216 7.562018 -12.262067 21.001001 22.125896 45.992728 -33.802401 -22.106840 32.968804 -60.545665 6.879645 38.428270 -5.048812 -19.963038 -14.580992 -49.392069 -20.813031 -65.809535 7.850173 -42.068259 -48.460332 75.830837 -3.119946 -59.198499 3.119067 -10.310077 0.302242 -0.234510 -3.703543 1.937474 0.939419 4.861298 4.408380 -0.075663 -0.069059 -0.008092 2.730513 -13.526470 4.722312 0.662579 -0.606001 2.306624 -0.923540 5.306524 3.718107 -0.020336 0.021835 0.002986 
9.629830 2.744864 83.015579 -7.262400 -5.667339 -119.713081 -9.521702 2.584266 3.991305 -4.250542 1.073056 1.864885 -4.250546 1.073059 1.864886 -3.191123 0.791877 1.406167 -4.957326 -28.603376 15.299554 -5.891964 -17.066928 26.215986 -2.665459 7.516299 -12.265389 20.994357 22.148640 46.015893 -33.809846 -22.104864 32.976461 -60.550310 6.928380 38.482819 -5.057919 -19.932143 -14.575981 -49.381773 -20.820679 -65.792965 7.809417 -42.084381 -48.464348 75.821855 -3.205302 -59.218847 3.114596 -10.338548 0.280184 -0.236552 -3.718358 1.947960 0.957640 4.875816 4.412442 -0.071660 -0.070030 -0.008619 2.725828 -13.553798 4.712061 0.664042 -0.620796 2.319867 -0.918004 5.315185 3.697391 -0.018859 0.021263 0.003015 
9.632458 2.748463 83.015320 -7.287877 -5.681896 -119.714761 -9.507569 2.588271 3.999711 -4.244614 1.074794 1.868345 -4.244615 1.074793 1.868346 -3.186687 0.793173 1.408764 -4.966596 -28.626255 15.297476 -5.912634 -17.107242 26.210858 -2.680325 7.460357 -12.278313 20.998495 22.162745 46.059709 -33.826444 -22.100518 32.997194 -60.567946 6.951901 38.547866 -5.051452 -19.946287 -14.580130 -49.377046 -20.817310 -65.785848 7.801336 -42.090020 -48.477961 75.806152 -3.253966 -59.235164 3.101526 -10.365506 0.264721 -0.227318 -3.727607 1.958180 0.969907 4.883112 4.452782 -0.065702 -0.067979 -0.008198 2.720523 -13.577268 4.698524 0.668555 -0.631992 2.334336 -0.915115 5.317967 3.725951 -0.016805 0.022218 0.003252 
